<svg xmlns="http://www.w3.org/2000/svg" width="50" height="50" viewBox="0 0 50 50" fill="none">
  <circle cx="25" cy="25" r="24.5" stroke="#686868"/>
  <path fill-rule="evenodd" clip-rule="evenodd" d="M25 46C36.598 46 46 36.598 46 25C46 13.402 36.598 4 25 4C13.402 4 4 13.402 4 25C4 36.598 13.402 46 25 46ZM38.0506 17.8377C38.5922 17.2575 38.5608 16.3481 37.9806 15.8065C37.4003 15.265 36.4909 15.2963 35.9494 15.8766L20.9644 31.932L14.0162 24.9838C13.455 24.4226 12.545 24.4226 11.9838 24.9838C11.4226 25.545 11.4226 26.455 11.9838 27.0162L19.9838 35.0162C20.2594 35.2918 20.6351 35.4436 21.0248 35.4369C21.4144 35.4302 21.7847 35.2655 22.0506 34.9806L38.0506 17.8377Z" fill="#696969"/>
</svg>