<svg width="336" height="327" viewBox="0 0 336 327" fill="none" xmlns="http://www.w3.org/2000/svg">
<path d="M98.9218 253.756H12.186C8.9552 253.752 5.85772 252.467 3.57318 250.183C1.28865 247.898 0.00363707 244.801 0 241.57V111.228C0.00363518 107.998 1.28865 104.9 3.57318 102.616C5.85772 100.331 8.9552 99.0461 12.186 99.0425H98.9218C102.153 99.0461 105.25 100.331 107.535 102.616C109.819 104.9 111.104 107.998 111.108 111.228V241.57C111.104 244.801 109.819 247.898 107.535 250.183C105.25 252.467 102.153 253.752 98.9218 253.756ZM12.186 100.476C9.3353 100.479 6.60223 101.613 4.58647 103.629C2.57071 105.645 1.43687 108.378 1.43365 111.228V241.57C1.43687 244.42 2.57071 247.153 4.58647 249.169C6.60223 251.185 9.3353 252.319 12.186 252.322H98.9218C101.773 252.319 104.506 251.185 106.521 249.169C108.537 247.153 109.671 244.42 109.674 241.57V111.228C109.671 108.378 108.537 105.645 106.521 103.629C104.506 101.613 101.773 100.479 98.9218 100.476H12.186Z" fill="#4D4D4D"/>
<path d="M85.6605 161.704H25.4472C23.8318 161.703 22.283 161.06 21.1408 159.918C19.9985 158.776 19.356 157.227 19.3542 155.611V126.938C19.356 125.323 19.9985 123.774 21.1408 122.632C22.283 121.49 23.8318 120.847 25.4472 120.845H85.6605C87.2759 120.847 88.8245 121.49 89.9668 122.632C91.109 123.774 91.7516 125.323 91.7535 126.938V155.611C91.7516 157.227 91.109 158.776 89.9668 159.918C88.8245 161.06 87.2759 161.703 85.6605 161.704Z" fill="#FBCE2F"/>
<path d="M81.3596 188.585H29.7482C28.2273 188.585 26.7687 187.981 25.6932 186.905C24.6178 185.83 24.0136 184.371 24.0136 182.85C24.0136 181.329 24.6178 179.871 25.6932 178.795C26.7687 177.72 28.2273 177.116 29.7482 177.116H81.3596C82.8805 177.116 84.3391 177.72 85.4146 178.795C86.49 179.871 87.0942 181.329 87.0942 182.85C87.0942 184.371 86.49 185.83 85.4146 186.905C84.3391 187.981 82.8805 188.585 81.3596 188.585Z" fill="#CCCCCC"/>
<path d="M81.3596 210.09H29.7483C28.2274 210.09 26.7687 209.486 25.6933 208.411C24.6178 207.335 24.0137 205.877 24.0137 204.356C24.0137 202.835 24.6178 201.376 25.6933 200.301C26.7687 199.225 28.2274 198.621 29.7483 198.621H81.3596C82.8806 198.621 84.3392 199.225 85.4146 200.301C86.4901 201.376 87.0942 202.835 87.0942 204.356C87.0942 205.877 86.4901 207.335 85.4146 208.411C84.3392 209.486 82.8806 210.09 81.3596 210.09Z" fill="#CCCCCC"/>
<path d="M81.3596 231.595H29.7482C28.2273 231.595 26.7687 230.99 25.6932 229.915C24.6178 228.84 24.0136 227.381 24.0136 225.86C24.0136 224.339 24.6178 222.881 25.6932 221.805C26.7687 220.73 28.2273 220.125 29.7482 220.125H81.3596C82.8805 220.125 84.3391 220.73 85.4146 221.805C86.49 222.881 87.0942 224.339 87.0942 225.86C87.0942 227.381 86.49 228.84 85.4146 229.915C84.3391 230.99 82.8805 231.595 81.3596 231.595Z" fill="#CCCCCC"/>
<path d="M310.385 326.872H223.649C220.418 326.868 217.321 325.583 215.036 323.299C212.752 321.014 211.467 317.917 211.463 314.686V184.345C211.467 181.114 212.752 178.016 215.036 175.732C217.321 173.447 220.418 172.162 223.649 172.159H310.385C313.616 172.162 316.713 173.447 318.998 175.732C321.282 178.016 322.567 181.114 322.571 184.345V314.686C322.567 317.917 321.282 321.014 318.998 323.299C316.713 325.583 313.616 326.868 310.385 326.872ZM223.649 173.592C220.799 173.596 218.065 174.729 216.05 176.745C214.034 178.761 212.9 181.494 212.897 184.345V314.686C212.9 317.537 214.034 320.27 216.05 322.285C218.065 324.301 220.799 325.435 223.649 325.438H310.385C313.236 325.435 315.969 324.301 317.985 322.285C320 320.27 321.134 317.537 321.137 314.686V184.345C321.134 181.494 320 178.761 317.985 176.745C315.969 174.729 313.236 173.596 310.385 173.592H223.649Z" fill="#4D4D4D"/>
<path d="M292.823 204.355H241.212C239.691 204.355 238.232 203.751 237.157 202.676C236.081 201.6 235.477 200.142 235.477 198.621C235.477 197.1 236.081 195.641 237.157 194.566C238.232 193.49 239.691 192.886 241.212 192.886H292.823C294.344 192.886 295.802 193.49 296.878 194.566C297.953 195.641 298.557 197.1 298.557 198.621C298.557 200.142 297.953 201.6 296.878 202.676C295.802 203.751 294.344 204.355 292.823 204.355Z" fill="#CCCCCC"/>
<path d="M292.823 225.86H241.212C239.691 225.86 238.232 225.256 237.157 224.181C236.081 223.105 235.477 221.647 235.477 220.126C235.477 218.605 236.081 217.146 237.157 216.071C238.232 214.995 239.691 214.391 241.212 214.391H292.823C294.344 214.391 295.802 214.995 296.878 216.071C297.953 217.146 298.557 218.605 298.557 220.126C298.557 221.647 297.953 223.105 296.878 224.181C295.802 225.256 294.344 225.86 292.823 225.86Z" fill="#CCCCCC"/>
<path d="M297.124 280.697H236.91C235.295 280.695 233.746 280.052 232.604 278.91C231.462 277.768 230.819 276.219 230.817 274.604V245.931C230.819 244.316 231.462 242.767 232.604 241.625C233.746 240.482 235.295 239.84 236.91 239.838H297.124C298.739 239.84 300.288 240.482 301.43 241.625C302.572 242.767 303.215 244.316 303.217 245.931V274.604C303.215 276.219 302.572 277.768 301.43 278.91C300.288 280.052 298.739 280.695 297.124 280.697Z" fill="#E6E6E6"/>
<path d="M292.823 306.144H241.212C239.691 306.144 238.232 305.54 237.157 304.465C236.081 303.389 235.477 301.931 235.477 300.41C235.477 298.889 236.081 297.43 237.157 296.355C238.232 295.279 239.691 294.675 241.212 294.675H292.823C294.344 294.675 295.802 295.279 296.878 296.355C297.953 297.43 298.557 298.889 298.557 300.41C298.557 301.931 297.953 303.389 296.878 304.465C295.802 305.54 294.344 306.144 292.823 306.144Z" fill="#CCCCCC"/>
<path d="M257.34 119.71H170.604C167.373 119.706 164.276 118.421 161.991 116.136C159.707 113.852 158.422 110.754 158.418 107.524V26.6433C158.422 23.4125 159.707 20.315 161.991 18.0305C164.276 15.746 167.373 14.4609 170.604 14.4573H257.34C260.571 14.4609 263.668 15.746 265.953 18.0305C268.237 20.315 269.522 23.4125 269.526 26.6433V107.524C269.522 110.754 268.237 113.852 265.953 116.136C263.668 118.421 260.571 119.706 257.34 119.71ZM170.604 15.8909C167.754 15.8941 165.02 17.028 163.005 19.0438C160.989 21.0595 159.855 23.7926 159.852 26.6433V107.524C159.855 110.374 160.989 113.107 163.005 115.123C165.02 117.139 167.754 118.273 170.604 118.276H257.34C260.191 118.273 262.924 117.139 264.94 115.123C266.955 113.107 268.089 110.374 268.092 107.524V26.6433C268.089 23.7926 266.955 21.0595 264.94 19.0438C262.924 17.028 260.191 15.8941 257.34 15.8909H170.604Z" fill="#4D4D4D"/>
<path d="M239.778 94.323H188.166C186.646 94.323 185.187 93.7188 184.112 92.6433C183.036 91.5679 182.432 90.1093 182.432 88.5884C182.432 87.0675 183.036 85.6088 184.112 84.5334C185.187 83.4579 186.646 82.8538 188.166 82.8538H239.778C241.299 82.8538 242.757 83.4579 243.833 84.5334C244.908 85.6088 245.512 87.0675 245.512 88.5884C245.512 90.1093 244.908 91.5679 243.833 92.6433C242.757 93.7188 241.299 94.323 239.778 94.323Z" fill="#CCCCCC"/>
<path d="M239.778 72.8181H188.166C186.646 72.8181 185.187 72.2139 184.112 71.1384C183.036 70.063 182.432 68.6044 182.432 67.0835C182.432 65.5626 183.036 64.104 184.112 63.0285C185.187 61.9531 186.646 61.3489 188.166 61.3489H239.778C241.299 61.3489 242.757 61.9531 243.833 63.0285C244.908 64.104 245.512 65.5626 245.512 67.0835C245.512 68.6044 244.908 70.063 243.833 71.1384C242.757 72.2139 241.299 72.8181 239.778 72.8181Z" fill="#CCCCCC"/>
<path d="M239.778 51.3134H188.166C186.646 51.3134 185.187 50.7093 184.112 49.6338C183.036 48.5584 182.432 47.0997 182.432 45.5788C182.432 44.0579 183.036 42.5993 184.112 41.5239C185.187 40.4484 186.646 39.8442 188.166 39.8442H239.778C241.299 39.8442 242.757 40.4484 243.833 41.5239C244.908 42.5993 245.512 44.0579 245.512 45.5788C245.512 47.0997 244.908 48.5584 243.833 49.6338C242.757 50.7093 241.299 51.3134 239.778 51.3134Z" fill="#CCCCCC"/>
<path d="M103.939 118.993C113.045 118.993 120.426 111.611 120.426 102.506C120.426 93.4005 113.045 86.019 103.939 86.019C94.834 86.019 87.4525 93.4005 87.4525 102.506C87.4525 111.611 94.834 118.993 103.939 118.993Z" fill="#FBCE2F"/>
<path d="M102.305 108.795C101.934 108.796 101.573 108.676 101.276 108.454L101.258 108.44L97.3835 105.473C97.2032 105.336 97.0517 105.165 96.9377 104.969C96.8238 104.773 96.7496 104.557 96.7195 104.332C96.6894 104.107 96.7039 103.879 96.7622 103.66C96.8205 103.441 96.9214 103.236 97.0592 103.056C97.197 102.876 97.369 102.725 97.5652 102.612C97.7614 102.499 97.9781 102.426 98.2027 102.396C98.4274 102.367 98.6556 102.382 98.8744 102.441C99.0931 102.5 99.298 102.602 99.4774 102.74L101.987 104.665L107.918 96.9303C108.055 96.7509 108.227 96.6004 108.422 96.4873C108.618 96.3742 108.834 96.3007 109.058 96.2712C109.283 96.2416 109.51 96.2564 109.729 96.3149C109.947 96.3733 110.152 96.4742 110.331 96.6117L110.294 96.6618L110.332 96.6125C110.694 96.8906 110.931 97.3008 110.99 97.7533C111.05 98.2058 110.928 98.6634 110.651 99.0259L103.675 108.123C103.513 108.333 103.306 108.503 103.069 108.619C102.831 108.736 102.57 108.796 102.305 108.795Z" fill="white"/>
<path d="M318.987 192.825C328.092 192.825 335.474 185.444 335.474 176.339C335.474 167.233 328.092 159.852 318.987 159.852C309.881 159.852 302.5 167.233 302.5 176.339C302.5 185.444 309.881 192.825 318.987 192.825Z" fill="#4D4D4D"/>
<path d="M317.353 182.628C316.982 182.628 316.621 182.509 316.324 182.286L316.305 182.272L312.431 179.306C312.251 179.169 312.099 178.997 311.985 178.801C311.871 178.606 311.797 178.389 311.767 178.165C311.737 177.94 311.751 177.712 311.81 177.493C311.868 177.274 311.969 177.069 312.107 176.889C312.244 176.709 312.416 176.558 312.613 176.445C312.809 176.331 313.025 176.258 313.25 176.229C313.475 176.199 313.703 176.215 313.922 176.274C314.14 176.333 314.345 176.435 314.525 176.573L317.034 178.497L322.965 170.763C323.103 170.583 323.274 170.433 323.47 170.32C323.666 170.207 323.882 170.133 324.106 170.104C324.33 170.074 324.558 170.089 324.776 170.147C324.994 170.206 325.199 170.307 325.378 170.444L325.342 170.494L325.379 170.445C325.741 170.723 325.978 171.133 326.038 171.586C326.098 172.038 325.975 172.496 325.698 172.858L318.722 181.956C318.561 182.166 318.353 182.335 318.116 182.452C317.878 182.568 317.617 182.629 317.353 182.628Z" fill="white"/>
<path d="M266.659 32.9739C275.764 32.9739 283.146 25.5925 283.146 16.487C283.146 7.38146 275.764 0 266.659 0C257.553 0 250.172 7.38146 250.172 16.487C250.172 25.5925 257.553 32.9739 266.659 32.9739Z" fill="#4D4D4D"/>
<path d="M265.024 22.7765C264.653 22.7772 264.292 22.6572 263.996 22.4347L263.977 22.4209L260.103 19.4544C259.922 19.3173 259.771 19.1458 259.657 18.95C259.543 18.7542 259.469 18.5378 259.439 18.3132C259.408 18.0887 259.423 17.8604 259.481 17.6414C259.54 17.4225 259.641 17.2172 259.778 17.0374C259.916 16.8575 260.088 16.7067 260.284 16.5934C260.481 16.4802 260.697 16.4068 260.922 16.3774C261.147 16.3481 261.375 16.3634 261.593 16.4225C261.812 16.4815 262.017 16.5832 262.197 16.7216L264.706 18.646L270.637 10.9115C270.774 10.7321 270.946 10.5816 271.142 10.4685C271.337 10.3554 271.553 10.2819 271.778 10.2524C272.002 10.2228 272.229 10.2376 272.448 10.2961C272.666 10.3545 272.871 10.4554 273.05 10.5929L273.013 10.643L273.051 10.5936C273.413 10.8718 273.65 11.282 273.71 11.7345C273.769 12.187 273.647 12.6446 273.37 13.0071L266.394 22.1047C266.233 22.3143 266.025 22.484 265.788 22.6005C265.55 22.717 265.289 22.7772 265.024 22.7765Z" fill="white"/>
</svg>
