<svg width="295" height="327" viewBox="0 0 295 327" fill="none" xmlns="http://www.w3.org/2000/svg">
<g clip-path="url(#clip0_18_1380)">
<path d="M170.146 266.073L160.874 309.464C160.874 309.464 91.9666 194.807 87.4222 165.444C82.8778 136.082 122.082 76.9644 122.082 76.9644L163.227 116.875L170.146 266.073Z" fill="#9F616A"/>
<path d="M76.4865 45.49L61.8107 43.0389C61.8107 43.0389 49.8733 57.6161 72.6643 65.2043L76.4865 45.49Z" fill="#9F616A"/>
<path d="M69.6354 71.0586L54.9596 68.6075C54.9596 68.6075 43.0222 83.1847 65.8133 90.7729L69.6354 71.0586Z" fill="#9F616A"/>
<path d="M62.2288 98.7004L47.553 96.2493C47.553 96.2493 35.6156 110.827 58.4066 118.415L62.2288 98.7004Z" fill="#9F616A"/>
<path d="M58.9095 127.437L44.2337 124.986C44.2337 124.986 32.2963 139.563 55.0874 147.152L58.9095 127.437Z" fill="#9F616A"/>
<path d="M67.7367 50.2867L68.8222 50.5775L76.9049 20.4124C77.5192 18.1197 78.5727 15.9687 80.0052 14.0823C81.4377 12.1959 83.2211 10.6109 85.2536 9.41792C87.2861 8.22495 89.528 7.44732 91.8511 7.12942C94.1743 6.81153 96.5333 6.95961 98.7934 7.5652L161.793 24.446C164.053 25.0515 166.17 26.1028 168.023 27.5397C169.876 28.9765 171.429 30.7709 172.593 32.8203C173.756 34.8697 174.508 37.134 174.806 39.484C175.103 41.8339 174.94 44.2234 174.326 46.5162L129.983 212.004C129.369 214.297 128.315 216.448 126.883 218.334C125.45 220.221 123.667 221.806 121.634 222.999C119.602 224.192 117.36 224.969 115.037 225.287C112.714 225.605 110.355 225.457 108.095 224.851L45.095 207.971C40.5305 206.748 36.6458 203.735 34.2955 199.596C31.9452 195.457 31.3219 190.531 32.5625 185.9L63.0688 72.0495L61.9833 71.7587L67.7367 50.2867Z" fill="#3F3D56"/>
<path d="M96.8819 11.9211L105.105 14.1246C104.475 14.9639 104.057 15.9456 103.889 16.9835C103.72 18.0214 103.806 19.0834 104.139 20.0762C104.471 21.0689 105.041 21.9619 105.796 22.6763C106.552 23.3908 107.471 23.9048 108.472 24.1732L144.564 33.844C145.566 34.1122 146.618 34.1265 147.63 33.8856C148.642 33.6448 149.581 33.1561 150.366 32.4627C151.15 31.7692 151.756 30.8923 152.128 29.9092C152.501 28.9261 152.63 27.867 152.504 26.8251L160.185 28.8832C163.594 29.7965 166.495 32.0461 168.25 35.137C170.005 38.228 170.471 41.9071 169.544 45.365L125.267 210.61C124.808 212.322 124.021 213.929 122.952 215.337C121.882 216.746 120.55 217.93 119.032 218.821C117.514 219.712 115.84 220.292 114.105 220.53C112.37 220.767 110.609 220.657 108.921 220.204L45.6176 203.242C43.9297 202.79 42.3488 202.005 40.965 200.932C39.5812 199.859 38.4217 198.519 37.5527 196.988C36.6836 195.458 36.122 193.767 35.8999 192.012C35.6779 190.257 35.7997 188.473 36.2585 186.76L80.5358 21.5153C80.9946 19.8031 81.7813 18.1968 82.8511 16.788C83.9208 15.3792 85.2527 14.1956 86.7706 13.3047C88.2884 12.4138 89.9626 11.8331 91.6975 11.5957C93.4324 11.3583 95.1941 11.4689 96.8819 11.9211Z" fill="white"/>
<path d="M129.692 70.3299L102.567 63.0618L100.787 69.7018L127.913 76.9699L129.692 70.3299Z" fill="#FBCE2F"/>
<path d="M123.338 99.2075L93.6301 91.2473L91.8509 97.8873L121.559 105.848L123.338 99.2075Z" fill="#E5E5E5"/>
<path d="M137.815 118.374L71.5095 100.608L69.7303 107.248L136.036 125.014L137.815 118.374Z" fill="#E5E5E5"/>
<path d="M133.993 132.638L67.6877 114.871L65.9085 121.511L132.214 139.278L133.993 132.638Z" fill="#E5E5E5"/>
<path d="M228.342 305.56L175.739 196.886L188.198 139.49L172.548 83.4505L169.929 60.5288C169.929 60.5288 150.299 57.4911 155.413 101.079L156.237 123.89C146.988 135.073 140.245 148.146 136.48 162.199L123.539 210.497C120.492 221.869 157.317 298.13 161 309.259L228.342 305.56Z" fill="#9F616A"/>
<path opacity="0.2" d="M165.518 85.9601L171.966 84.6484L171.879 84.1961L165.922 85.4083L163.642 62.183L163.189 62.2322L165.518 85.9601Z" fill="black"/>
<path opacity="0.2" d="M61.9431 42.8493L61.6791 43.2271L69.2614 48.6334L69.5255 48.2557L61.9431 42.8493Z" fill="black"/>
<path opacity="0.2" d="M55.0139 68.7094L54.7499 69.0872L62.3322 74.4935L62.5963 74.1158L55.0139 68.7094Z" fill="black"/>
<path opacity="0.2" d="M47.6069 96.3528L47.3428 96.7305L54.9252 102.137L55.1892 101.759L47.6069 96.3528Z" fill="black"/>
<path opacity="0.2" d="M44.612 125.187L44.3142 125.538L47.8813 128.635L48.1791 128.284L44.612 125.187Z" fill="black"/>
<path d="M83.7404 187.707C94.2341 190.519 105.053 184.168 107.905 173.523C110.758 162.878 104.563 151.969 94.0696 149.158C83.576 146.346 72.7569 152.696 69.9045 163.341C67.0522 173.986 73.2467 184.895 83.7404 187.707Z" fill="#FBCE2F"/>
<path d="M84.9141 176.084L81.2151 167.142L85.2212 165.419L86.9727 169.652L98.6796 162.349L100.938 166.087L84.9141 176.084Z" fill="white"/>
</g>
<defs>
<clipPath id="clip0_18_1380">
<rect width="230" height="275.545" fill="white" transform="translate(72 0.385742) rotate(15)"/>
</clipPath>
</defs>
</svg>
