<svg width="500" height="290" viewBox="0 0 500 290" fill="none" xmlns="http://www.w3.org/2000/svg">
<path d="M139.36 10.8666C142.36 10.8666 144.793 8.43401 144.793 5.43329C144.793 2.43257 142.36 0 139.36 0C136.359 0 133.926 2.43257 133.926 5.43329C133.926 8.43401 136.359 10.8666 139.36 10.8666Z" fill="#E6E6E6"/>
<path d="M166.863 10.8666C169.864 10.8666 172.296 8.43401 172.296 5.43329C172.296 2.43257 169.864 0 166.863 0C163.862 0 161.43 2.43257 161.43 5.43329C161.43 8.43401 163.862 10.8666 166.863 10.8666Z" fill="#E6E6E6"/>
<path d="M194.366 10.8666C197.367 10.8666 199.799 8.43401 199.799 5.43329C199.799 2.43257 197.367 0 194.366 0C191.365 0 188.933 2.43257 188.933 5.43329C188.933 8.43401 191.365 10.8666 194.366 10.8666Z" fill="#E6E6E6"/>
<path d="M221.869 10.8666C224.87 10.8666 227.302 8.43401 227.302 5.43329C227.302 2.43257 224.87 0 221.869 0C218.868 0 216.436 2.43257 216.436 5.43329C216.436 8.43401 218.868 10.8666 221.869 10.8666Z" fill="#E6E6E6"/>
<path d="M249.372 10.8666C252.373 10.8666 254.806 8.43401 254.806 5.43329C254.806 2.43257 252.373 0 249.372 0C246.372 0 243.939 2.43257 243.939 5.43329C243.939 8.43401 246.372 10.8666 249.372 10.8666Z" fill="#E6E6E6"/>
<path d="M139.36 38.7147C142.36 38.7147 144.793 36.2822 144.793 33.2814C144.793 30.2807 142.36 27.8481 139.36 27.8481C136.359 27.8481 133.926 30.2807 133.926 33.2814C133.926 36.2822 136.359 38.7147 139.36 38.7147Z" fill="#E6E6E6"/>
<path d="M166.863 38.7147C169.864 38.7147 172.296 36.2822 172.296 33.2814C172.296 30.2807 169.864 27.8481 166.863 27.8481C163.862 27.8481 161.43 30.2807 161.43 33.2814C161.43 36.2822 163.862 38.7147 166.863 38.7147Z" fill="#E6E6E6"/>
<path d="M194.366 38.7147C197.367 38.7147 199.799 36.2822 199.799 33.2814C199.799 30.2807 197.367 27.8481 194.366 27.8481C191.365 27.8481 188.933 30.2807 188.933 33.2814C188.933 36.2822 191.365 38.7147 194.366 38.7147Z" fill="#E6E6E6"/>
<path d="M221.869 38.7147C224.87 38.7147 227.302 36.2822 227.302 33.2814C227.302 30.2807 224.87 27.8481 221.869 27.8481C218.868 27.8481 216.436 30.2807 216.436 33.2814C216.436 36.2822 218.868 38.7147 221.869 38.7147Z" fill="#FBCE2F"/>
<path d="M249.372 38.7147C252.373 38.7147 254.806 36.2822 254.806 33.2814C254.806 30.2807 252.373 27.8481 249.372 27.8481C246.372 27.8481 243.939 30.2807 243.939 33.2814C243.939 36.2822 246.372 38.7147 249.372 38.7147Z" fill="#E6E6E6"/>
<path d="M304.379 38.7147C307.38 38.7147 309.812 36.2822 309.812 33.2814C309.812 30.2807 307.38 27.8481 304.379 27.8481C301.378 27.8481 298.946 30.2807 298.946 33.2814C298.946 36.2822 301.378 38.7147 304.379 38.7147Z" fill="#E6E6E6"/>
<path d="M139.36 66.5634C142.36 66.5634 144.793 64.1308 144.793 61.1301C144.793 58.1293 142.36 55.6968 139.36 55.6968C136.359 55.6968 133.926 58.1293 133.926 61.1301C133.926 64.1308 136.359 66.5634 139.36 66.5634Z" fill="#E6E6E6"/>
<path d="M166.863 66.5634C169.864 66.5634 172.296 64.1308 172.296 61.1301C172.296 58.1293 169.864 55.6968 166.863 55.6968C163.862 55.6968 161.43 58.1293 161.43 61.1301C161.43 64.1308 163.862 66.5634 166.863 66.5634Z" fill="#E6E6E6"/>
<path d="M194.366 66.5634C197.367 66.5634 199.799 64.1308 199.799 61.1301C199.799 58.1293 197.367 55.6968 194.366 55.6968C191.365 55.6968 188.933 58.1293 188.933 61.1301C188.933 64.1308 191.365 66.5634 194.366 66.5634Z" fill="#E6E6E6"/>
<path d="M221.869 66.5634C224.87 66.5634 227.302 64.1308 227.302 61.1301C227.302 58.1293 224.87 55.6968 221.869 55.6968C218.868 55.6968 216.436 58.1293 216.436 61.1301C216.436 64.1308 218.868 66.5634 221.869 66.5634Z" fill="#E6E6E6"/>
<path d="M249.372 66.5634C252.373 66.5634 254.806 64.1308 254.806 61.1301C254.806 58.1293 252.373 55.6968 249.372 55.6968C246.372 55.6968 243.939 58.1293 243.939 61.1301C243.939 64.1308 246.372 66.5634 249.372 66.5634Z" fill="#E6E6E6"/>
<path d="M139.36 94.4117C142.36 94.4117 144.793 91.9792 144.793 88.9785C144.793 85.9777 142.36 83.5452 139.36 83.5452C136.359 83.5452 133.926 85.9777 133.926 88.9785C133.926 91.9792 136.359 94.4117 139.36 94.4117Z" fill="#E6E6E6"/>
<path d="M166.863 94.4117C169.864 94.4117 172.296 91.9792 172.296 88.9785C172.296 85.9777 169.864 83.5452 166.863 83.5452C163.862 83.5452 161.43 85.9777 161.43 88.9785C161.43 91.9792 163.862 94.4117 166.863 94.4117Z" fill="#E6E6E6"/>
<path d="M194.366 94.4117C197.367 94.4117 199.799 91.9792 199.799 88.9785C199.799 85.9777 197.367 83.5452 194.366 83.5452C191.365 83.5452 188.933 85.9777 188.933 88.9785C188.933 91.9792 191.365 94.4117 194.366 94.4117Z" fill="#E6E6E6"/>
<path d="M221.869 94.4117C224.87 94.4117 227.302 91.9792 227.302 88.9785C227.302 85.9777 224.87 83.5452 221.869 83.5452C218.868 83.5452 216.436 85.9777 216.436 88.9785C216.436 91.9792 218.868 94.4117 221.869 94.4117Z" fill="#E6E6E6"/>
<path d="M249.372 94.4117C252.373 94.4117 254.806 91.9792 254.806 88.9785C254.806 85.9777 252.373 83.5452 249.372 83.5452C246.372 83.5452 243.939 85.9777 243.939 88.9785C243.939 91.9792 246.372 94.4117 249.372 94.4117Z" fill="#E6E6E6"/>
<path d="M276.876 94.4117C279.876 94.4117 282.309 91.9792 282.309 88.9785C282.309 85.9777 279.876 83.5452 276.876 83.5452C273.875 83.5452 271.442 85.9777 271.442 88.9785C271.442 91.9792 273.875 94.4117 276.876 94.4117Z" fill="#E6E6E6"/>
<path d="M304.379 94.4117C307.38 94.4117 309.812 91.9792 309.812 88.9785C309.812 85.9777 307.38 83.5452 304.379 83.5452C301.378 83.5452 298.946 85.9777 298.946 88.9785C298.946 91.9792 301.378 94.4117 304.379 94.4117Z" fill="#E6E6E6"/>
<path d="M331.882 94.4117C334.883 94.4117 337.315 91.9792 337.315 88.9785C337.315 85.9777 334.883 83.5452 331.882 83.5452C328.881 83.5452 326.449 85.9777 326.449 88.9785C326.449 91.9792 328.881 94.4117 331.882 94.4117Z" fill="#E6E6E6"/>
<path d="M359.385 94.4117C362.386 94.4117 364.819 91.9792 364.819 88.9785C364.819 85.9777 362.386 83.5452 359.385 83.5452C356.385 83.5452 353.952 85.9777 353.952 88.9785C353.952 91.9792 356.385 94.4117 359.385 94.4117Z" fill="#E6E6E6"/>
<path d="M386.888 94.4117C389.889 94.4117 392.322 91.9792 392.322 88.9785C392.322 85.9777 389.889 83.5452 386.888 83.5452C383.888 83.5452 381.455 85.9777 381.455 88.9785C381.455 91.9792 383.888 94.4117 386.888 94.4117Z" fill="#E6E6E6"/>
<path d="M249.372 122.26C252.373 122.26 254.806 119.828 254.806 116.827C254.806 113.826 252.373 111.394 249.372 111.394C246.372 111.394 243.939 113.826 243.939 116.827C243.939 119.828 246.372 122.26 249.372 122.26Z" fill="#E6E6E6"/>
<path d="M276.876 122.26C279.876 122.26 282.309 119.828 282.309 116.827C282.309 113.826 279.876 111.394 276.876 111.394C273.875 111.394 271.442 113.826 271.442 116.827C271.442 119.828 273.875 122.26 276.876 122.26Z" fill="#FBCE2F"/>
<path d="M304.379 122.26C307.38 122.26 309.812 119.828 309.812 116.827C309.812 113.826 307.38 111.394 304.379 111.394C301.378 111.394 298.946 113.826 298.946 116.827C298.946 119.828 301.378 122.26 304.379 122.26Z" fill="#E6E6E6"/>
<path d="M331.882 122.26C334.883 122.26 337.315 119.828 337.315 116.827C337.315 113.826 334.883 111.394 331.882 111.394C328.881 111.394 326.449 113.826 326.449 116.827C326.449 119.828 328.881 122.26 331.882 122.26Z" fill="#E6E6E6"/>
<path d="M359.385 122.26C362.386 122.26 364.819 119.828 364.819 116.827C364.819 113.826 362.386 111.394 359.385 111.394C356.385 111.394 353.952 113.826 353.952 116.827C353.952 119.828 356.385 122.26 359.385 122.26Z" fill="#E6E6E6"/>
<path d="M386.888 122.26C389.889 122.26 392.322 119.828 392.322 116.827C392.322 113.826 389.889 111.394 386.888 111.394C383.888 111.394 381.455 113.826 381.455 116.827C381.455 119.828 383.888 122.26 386.888 122.26Z" fill="#E6E6E6"/>
<path d="M249.372 150.109C252.373 150.109 254.806 147.676 254.806 144.675C254.806 141.675 252.373 139.242 249.372 139.242C246.372 139.242 243.939 141.675 243.939 144.675C243.939 147.676 246.372 150.109 249.372 150.109Z" fill="#E6E6E6"/>
<path d="M276.876 150.109C279.876 150.109 282.309 147.676 282.309 144.675C282.309 141.675 279.876 139.242 276.876 139.242C273.875 139.242 271.442 141.675 271.442 144.675C271.442 147.676 273.875 150.109 276.876 150.109Z" fill="#E6E6E6"/>
<path d="M304.379 150.109C307.38 150.109 309.812 147.676 309.812 144.675C309.812 141.675 307.38 139.242 304.379 139.242C301.378 139.242 298.946 141.675 298.946 144.675C298.946 147.676 301.378 150.109 304.379 150.109Z" fill="#E6E6E6"/>
<path d="M331.882 150.109C334.883 150.109 337.315 147.676 337.315 144.675C337.315 141.675 334.883 139.242 331.882 139.242C328.881 139.242 326.449 141.675 326.449 144.675C326.449 147.676 328.881 150.109 331.882 150.109Z" fill="#E6E6E6"/>
<path d="M359.385 150.109C362.386 150.109 364.819 147.676 364.819 144.675C364.819 141.675 362.386 139.242 359.385 139.242C356.385 139.242 353.952 141.675 353.952 144.675C353.952 147.676 356.385 150.109 359.385 150.109Z" fill="#FBCE2F"/>
<path d="M386.888 150.109C389.889 150.109 392.322 147.676 392.322 144.675C392.322 141.675 389.889 139.242 386.888 139.242C383.888 139.242 381.455 141.675 381.455 144.675C381.455 147.676 383.888 150.109 386.888 150.109Z" fill="#E6E6E6"/>
<path d="M249.372 177.957C252.373 177.957 254.806 175.524 254.806 172.524C254.806 169.523 252.373 167.09 249.372 167.09C246.372 167.09 243.939 169.523 243.939 172.524C243.939 175.524 246.372 177.957 249.372 177.957Z" fill="#E6E6E6"/>
<path d="M276.876 177.957C279.876 177.957 282.309 175.524 282.309 172.524C282.309 169.523 279.876 167.09 276.876 167.09C273.875 167.09 271.442 169.523 271.442 172.524C271.442 175.524 273.875 177.957 276.876 177.957Z" fill="#E6E6E6"/>
<path d="M304.379 177.957C307.38 177.957 309.812 175.524 309.812 172.524C309.812 169.523 307.38 167.09 304.379 167.09C301.378 167.09 298.946 169.523 298.946 172.524C298.946 175.524 301.378 177.957 304.379 177.957Z" fill="#E6E6E6"/>
<path d="M331.882 177.957C334.883 177.957 337.315 175.524 337.315 172.524C337.315 169.523 334.883 167.09 331.882 167.09C328.881 167.09 326.449 169.523 326.449 172.524C326.449 175.524 328.881 177.957 331.882 177.957Z" fill="#E6E6E6"/>
<path d="M359.385 177.957C362.386 177.957 364.819 175.524 364.819 172.524C364.819 169.523 362.386 167.09 359.385 167.09C356.385 167.09 353.952 169.523 353.952 172.524C353.952 175.524 356.385 177.957 359.385 177.957Z" fill="#E6E6E6"/>
<path d="M386.888 177.957C389.889 177.957 392.322 175.524 392.322 172.524C392.322 169.523 389.889 167.09 386.888 167.09C383.888 167.09 381.455 169.523 381.455 172.524C381.455 175.524 383.888 177.957 386.888 177.957Z" fill="#E6E6E6"/>
<path d="M139.36 205.806C142.36 205.806 144.793 203.373 144.793 200.372C144.793 197.372 142.36 194.939 139.36 194.939C136.359 194.939 133.926 197.372 133.926 200.372C133.926 203.373 136.359 205.806 139.36 205.806Z" fill="#E6E6E6"/>
<path d="M166.863 205.806C169.864 205.806 172.296 203.373 172.296 200.372C172.296 197.372 169.864 194.939 166.863 194.939C163.862 194.939 161.43 197.372 161.43 200.372C161.43 203.373 163.862 205.806 166.863 205.806Z" fill="#E6E6E6"/>
<path d="M194.366 205.806C197.367 205.806 199.799 203.373 199.799 200.372C199.799 197.372 197.367 194.939 194.366 194.939C191.365 194.939 188.933 197.372 188.933 200.372C188.933 203.373 191.365 205.806 194.366 205.806Z" fill="#E6E6E6"/>
<path d="M221.869 205.806C224.87 205.806 227.302 203.373 227.302 200.372C227.302 197.372 224.87 194.939 221.869 194.939C218.868 194.939 216.436 197.372 216.436 200.372C216.436 203.373 218.868 205.806 221.869 205.806Z" fill="#E6E6E6"/>
<path d="M249.372 205.806C252.373 205.806 254.806 203.373 254.806 200.372C254.806 197.372 252.373 194.939 249.372 194.939C246.372 194.939 243.939 197.372 243.939 200.372C243.939 203.373 246.372 205.806 249.372 205.806Z" fill="#E6E6E6"/>
<path d="M276.876 205.806C279.876 205.806 282.309 203.373 282.309 200.372C282.309 197.372 279.876 194.939 276.876 194.939C273.875 194.939 271.442 197.372 271.442 200.372C271.442 203.373 273.875 205.806 276.876 205.806Z" fill="#E6E6E6"/>
<path d="M304.379 205.806C307.38 205.806 309.812 203.373 309.812 200.372C309.812 197.372 307.38 194.939 304.379 194.939C301.378 194.939 298.946 197.372 298.946 200.372C298.946 203.373 301.378 205.806 304.379 205.806Z" fill="#E6E6E6"/>
<path d="M331.882 205.806C334.883 205.806 337.315 203.373 337.315 200.372C337.315 197.372 334.883 194.939 331.882 194.939C328.881 194.939 326.449 197.372 326.449 200.372C326.449 203.373 328.881 205.806 331.882 205.806Z" fill="#E6E6E6"/>
<path d="M359.385 205.806C362.386 205.806 364.819 203.373 364.819 200.372C364.819 197.372 362.386 194.939 359.385 194.939C356.385 194.939 353.952 197.372 353.952 200.372C353.952 203.373 356.385 205.806 359.385 205.806Z" fill="#E6E6E6"/>
<path d="M386.888 205.806C389.889 205.806 392.322 203.373 392.322 200.372C392.322 197.372 389.889 194.939 386.888 194.939C383.888 194.939 381.455 197.372 381.455 200.372C381.455 203.373 383.888 205.806 386.888 205.806Z" fill="#E6E6E6"/>
<path d="M139.356 233.653C142.357 233.653 144.79 231.221 144.79 228.22C144.79 225.219 142.357 222.787 139.356 222.787C136.356 222.787 133.923 225.219 133.923 228.22C133.923 231.221 136.356 233.653 139.356 233.653Z" fill="#E6E6E6"/>
<path d="M166.863 233.654C169.864 233.654 172.296 231.221 172.296 228.22C172.296 225.22 169.864 222.787 166.863 222.787C163.862 222.787 161.43 225.22 161.43 228.22C161.43 231.221 163.862 233.654 166.863 233.654Z" fill="#E6E6E6"/>
<path d="M139.356 261.501C142.357 261.501 144.79 259.069 144.79 256.068C144.79 253.067 142.357 250.635 139.356 250.635C136.356 250.635 133.923 253.067 133.923 256.068C133.923 259.069 136.356 261.501 139.356 261.501Z" fill="#E6E6E6"/>
<path d="M166.863 261.502C169.864 261.502 172.296 259.07 172.296 256.069C172.296 253.068 169.864 250.636 166.863 250.636C163.862 250.636 161.43 253.068 161.43 256.069C161.43 259.07 163.862 261.502 166.863 261.502Z" fill="#E6E6E6"/>
<path d="M221.869 261.502C224.87 261.502 227.302 259.07 227.302 256.069C227.302 253.068 224.87 250.636 221.869 250.636C218.868 250.636 216.436 253.068 216.436 256.069C216.436 259.07 218.868 261.502 221.869 261.502Z" fill="#E6E6E6"/>
<path d="M496.013 64.102H280.702C279.644 64.1007 278.631 63.6803 277.884 62.9328C277.136 62.1853 276.716 61.1718 276.714 60.1147V6.70526C276.716 5.64815 277.136 4.63471 277.884 3.88722C278.631 3.13974 279.644 2.71926 280.702 2.71802H496.013C497.07 2.71926 498.083 3.13974 498.831 3.88722C499.578 4.63471 499.999 5.64815 500 6.70526V60.1148C499.999 61.1719 499.578 62.1853 498.831 62.9328C498.083 63.6803 497.07 64.1007 496.013 64.102ZM280.702 4.31291C280.067 4.31361 279.459 4.56588 279.011 5.01438C278.562 5.46288 278.31 6.07098 278.309 6.70526V60.1148C278.31 60.749 278.562 61.3571 279.011 61.8056C279.459 62.2541 280.067 62.5064 280.702 62.5071H496.013C496.647 62.5064 497.255 62.2541 497.704 61.8056C498.152 61.3571 498.404 60.749 498.405 60.1148V6.70526C498.404 6.07098 498.152 5.46288 497.704 5.01438C497.255 4.56588 496.647 4.31361 496.013 4.31291H280.702Z" fill="#E6E6E6"/>
<path d="M308.612 50.1561C317.861 50.1561 325.359 42.6585 325.359 33.4097C325.359 24.1609 317.861 16.6633 308.612 16.6633C299.363 16.6633 291.866 24.1609 291.866 33.4097C291.866 42.6585 299.363 50.1561 308.612 50.1561Z" fill="#FBCE2F"/>
<path d="M347.288 22.2454C346.548 22.2454 345.838 22.5394 345.315 23.0628C344.791 23.5863 344.497 24.2962 344.497 25.0364C344.497 25.7767 344.791 26.4866 345.315 27.01C345.838 27.5334 346.548 27.8275 347.288 27.8275H421.451C422.191 27.8275 422.901 27.5334 423.425 27.01C423.948 26.4866 424.242 25.7767 424.242 25.0364C424.242 24.2962 423.948 23.5863 423.425 23.0628C422.901 22.5394 422.191 22.2454 421.451 22.2454H347.288Z" fill="#E6E6E6"/>
<path d="M347.288 38.9919C346.548 38.9919 345.838 39.286 345.315 39.8094C344.791 40.3328 344.497 41.0428 344.497 41.783C344.497 42.5232 344.791 43.2332 345.315 43.7566C345.838 44.28 346.548 44.5741 347.288 44.5741H478.867C479.608 44.5741 480.317 44.28 480.841 43.7566C481.364 43.2332 481.658 42.5232 481.658 41.783C481.658 41.0428 481.364 40.3328 480.841 39.8094C480.317 39.286 479.608 38.9919 478.867 38.9919H347.288Z" fill="#E6E6E6"/>
<path d="M219.298 172.555H3.98724C2.93014 172.554 1.91669 172.133 1.16921 171.386C0.421723 170.638 0.00123886 169.625 0 168.568V115.158C0.00123886 114.101 0.421723 113.088 1.16921 112.34C1.91669 111.593 2.93014 111.172 3.98724 111.171H219.298C220.356 111.172 221.369 111.593 222.116 112.34C222.864 113.088 223.284 114.101 223.286 115.158V168.568C223.284 169.625 222.864 170.638 222.116 171.386C221.369 172.133 220.356 172.554 219.298 172.555ZM3.98724 112.766C3.35296 112.766 2.74486 113.019 2.29636 113.467C1.84786 113.916 1.59559 114.524 1.59489 115.158V168.568C1.59559 169.202 1.84786 169.81 2.29636 170.259C2.74486 170.707 3.35296 170.959 3.98724 170.96H219.298C219.933 170.959 220.541 170.707 220.989 170.259C221.438 169.81 221.69 169.202 221.691 168.568V115.158C221.69 114.524 221.438 113.916 220.989 113.467C220.541 113.019 219.933 112.766 219.298 112.766H3.98724Z" fill="#E6E6E6"/>
<path d="M31.8979 158.609C41.1467 158.609 48.6443 151.111 48.6443 141.863C48.6443 132.614 41.1467 125.116 31.8979 125.116C22.6492 125.116 15.1516 132.614 15.1516 141.863C15.1516 151.111 22.6492 158.609 31.8979 158.609Z" fill="#FBCE2F"/>
<path d="M70.5741 130.698C69.8339 130.698 69.124 130.992 68.6006 131.516C68.0771 132.039 67.7831 132.749 67.7831 133.489C67.7831 134.23 68.0771 134.939 68.6006 135.463C69.124 135.986 69.8339 136.28 70.5741 136.28H147.927C148.667 136.28 149.377 135.986 149.9 135.463C150.424 134.939 150.718 134.23 150.718 133.489C150.718 132.749 150.424 132.039 149.9 131.516C149.377 130.992 148.667 130.698 147.927 130.698H70.5741Z" fill="#E6E6E6"/>
<path d="M70.5741 147.445C69.8339 147.445 69.124 147.739 68.6006 148.262C68.0771 148.786 67.7831 149.496 67.7831 150.236C67.7831 150.976 68.0771 151.686 68.6006 152.209C69.124 152.733 69.8339 153.027 70.5741 153.027H202.153C202.893 153.027 203.603 152.733 204.127 152.209C204.65 151.686 204.944 150.976 204.944 150.236C204.944 149.496 204.65 148.786 204.127 148.262C203.603 147.739 202.893 147.445 202.153 147.445H70.5741Z" fill="#E6E6E6"/>
<path d="M413.876 289.779H198.564C197.507 289.778 196.494 289.358 195.746 288.61C194.999 287.863 194.578 286.849 194.577 285.792V232.383C194.578 231.326 194.999 230.312 195.746 229.565C196.494 228.817 197.507 228.397 198.564 228.396H413.876C414.933 228.397 415.946 228.817 416.694 229.565C417.441 230.312 417.862 231.326 417.863 232.383V285.792C417.862 286.849 417.441 287.863 416.694 288.61C415.946 289.358 414.933 289.778 413.876 289.779ZM198.564 229.99C197.93 229.991 197.322 230.243 196.874 230.692C196.425 231.14 196.173 231.748 196.172 232.383V285.792C196.173 286.427 196.425 287.035 196.874 287.483C197.322 287.932 197.93 288.184 198.564 288.185H413.876C414.51 288.184 415.118 287.932 415.567 287.483C416.015 287.035 416.267 286.427 416.268 285.792V232.383C416.267 231.748 416.015 231.14 415.567 230.692C415.118 230.243 414.51 229.991 413.876 229.99H198.564Z" fill="#3F3D56"/>
<path d="M226.475 275.834C235.724 275.834 243.221 268.336 243.221 259.087C243.221 249.838 235.724 242.341 226.475 242.341C217.226 242.341 209.729 249.838 209.729 259.087C209.729 268.336 217.226 275.834 226.475 275.834Z" fill="#FBCE2F"/>
<path d="M265.151 247.923C264.411 247.923 263.701 248.217 263.178 248.741C262.654 249.264 262.36 249.974 262.36 250.714C262.36 251.455 262.654 252.165 263.178 252.688C263.701 253.211 264.411 253.505 265.151 253.505H336.124C336.864 253.505 337.574 253.211 338.098 252.688C338.621 252.165 338.915 251.455 338.915 250.714C338.915 249.974 338.621 249.264 338.098 248.741C337.574 248.217 336.864 247.923 336.124 247.923H265.151Z" fill="#E6E6E6"/>
<path d="M265.151 264.669C264.411 264.669 263.701 264.964 263.178 265.487C262.654 266.01 262.36 266.72 262.36 267.461C262.36 268.201 262.654 268.911 263.178 269.434C263.701 269.958 264.411 270.252 265.151 270.252H396.73C397.47 270.252 398.18 269.958 398.704 269.434C399.227 268.911 399.521 268.201 399.521 267.461C399.521 266.72 399.227 266.01 398.704 265.487C398.18 264.964 397.47 264.669 396.73 264.669H265.151Z" fill="#E6E6E6"/>
</svg>
