<svg width="210" height="266" viewBox="0 0 210 266" fill="none" xmlns="http://www.w3.org/2000/svg">
<path fill-rule="evenodd" clip-rule="evenodd" d="M0.637444 17.5038L2.36901e-05 247.424C-0.00761224 252.078 1.83098 256.544 5.11242 259.844C8.39386 263.144 12.8502 265.007 17.5037 265.025L191.145 265.506C195.798 265.514 200.265 263.676 203.564 260.394C206.864 257.113 208.727 252.656 208.746 248.003L209.383 18.0825C209.391 13.4289 207.552 8.96235 204.271 5.66265C200.989 2.36295 196.533 0.49959 191.879 0.481408L18.2385 2.37556e-05C13.585 -0.00762275 9.11836 1.83096 5.81866 5.11242C2.51895 8.39388 0.655605 12.8502 0.637444 17.5038ZM13.9216 30.2017L13.5118 178.015C13.48 197.429 21.1501 216.062 34.8393 229.827C48.5285 243.592 67.119 251.365 86.5322 251.441L178.977 251.697C183.335 251.704 187.518 249.983 190.609 246.91C193.699 243.836 195.445 239.663 195.462 235.304L196.029 30.7067C196.036 26.3484 194.314 22.1652 191.241 19.0749C188.167 15.9846 183.994 14.2396 179.635 14.2227L30.4056 13.809C26.0473 13.8017 21.8642 15.5236 18.7739 18.5968C15.6836 21.67 13.9386 25.8435 13.9216 30.2017Z" fill="#E6E6E6"/>
<path d="M162.872 129.198H46.5112C44.6596 129.198 42.8837 128.463 41.5744 127.153C40.2651 125.844 39.5295 124.068 39.5295 122.217C39.5295 120.365 40.2651 118.589 41.5744 117.28C42.8837 115.97 44.6596 115.235 46.5112 115.235H162.872C164.724 115.235 166.5 115.97 167.809 117.28C169.118 118.589 169.854 120.365 169.854 122.217C169.854 124.068 169.118 125.844 167.809 127.153C166.5 128.463 164.724 129.198 162.872 129.198Z" fill="#FBCE2F"/>
<path d="M72.1106 90.9103H46.5112C44.6596 90.9103 42.8837 90.1748 41.5744 88.8654C40.2651 87.5561 39.5295 85.7803 39.5295 83.9287C39.5295 82.077 40.2651 80.3012 41.5744 78.9919C42.8837 77.6826 44.6596 76.947 46.5112 76.947H72.1106C73.9622 76.947 75.738 77.6826 77.0474 78.9919C78.3567 80.3012 79.0922 82.077 79.0922 83.9287C79.0922 85.7803 78.3567 87.5561 77.0474 88.8654C75.738 90.1748 73.9622 90.9103 72.1106 90.9103Z" fill="#FBCE2F"/>
<path d="M162.872 190.585H46.5112C44.6596 190.585 42.8837 189.849 41.5744 188.54C40.2651 187.23 39.5295 185.455 39.5295 183.603C39.5295 181.751 40.2651 179.976 41.5744 178.666C42.8837 177.357 44.6596 176.621 46.5112 176.621H162.872C164.724 176.621 166.5 177.357 167.809 178.666C169.118 179.976 169.854 181.751 169.854 183.603C169.854 185.455 169.118 187.23 167.809 188.54C166.5 189.849 164.724 190.585 162.872 190.585Z" fill="#FBCE2F"/>
<path d="M162.872 159.891H46.5112C44.6596 159.891 42.8837 159.156 41.5744 157.846C40.2651 156.537 39.5295 154.761 39.5295 152.91C39.5295 151.058 40.2651 149.282 41.5744 147.973C42.8837 146.664 44.6596 145.928 46.5112 145.928H162.872C164.724 145.928 166.5 146.664 167.809 147.973C169.118 149.282 169.854 151.058 169.854 152.91C169.854 154.761 169.118 156.537 167.809 157.846C166.5 159.156 164.724 159.891 162.872 159.891Z" fill="#FBCE2F"/>
<path d="M150.277 91C161.322 91 170.277 82.0457 170.277 71C170.277 59.9543 161.322 51 150.277 51C139.231 51 130.277 59.9543 130.277 71C130.277 82.0457 139.231 91 150.277 91Z" fill="#FBCE2F"/>
<path d="M147.548 81.4091C147.203 81.4091 146.862 81.3287 146.553 81.1742C146.245 81.0197 145.976 80.7954 145.769 80.519L140.312 73.2439C140.137 73.0102 140.009 72.7442 139.936 72.461C139.863 72.1778 139.847 71.8831 139.888 71.5937C139.929 71.3042 140.027 71.0257 140.176 70.7741C140.325 70.5225 140.522 70.3027 140.756 70.1273C140.99 69.9519 141.256 69.8243 141.539 69.7519C141.822 69.6794 142.117 69.6635 142.407 69.705C142.696 69.7465 142.974 69.8447 143.226 69.9938C143.477 70.143 143.697 70.3403 143.872 70.5744L147.442 75.3336L156.61 61.5813C156.938 61.091 157.446 60.7507 158.025 60.6353C158.603 60.5199 159.203 60.6389 159.694 60.966C160.185 61.2931 160.525 61.8016 160.641 62.3798C160.757 62.958 160.639 63.5585 160.312 64.0495L149.4 80.4184C149.202 80.7145 148.937 80.9589 148.625 81.1311C148.314 81.3034 147.966 81.3985 147.61 81.4085C147.59 81.4088 147.569 81.4091 147.548 81.4091Z" fill="white"/>
</svg>
