<svg width="40" height="40" viewBox="0 0 40 40" fill="none" xmlns="http://www.w3.org/2000/svg">
<path d="M20 40C31.0457 40 40 31.0457 40 20C40 8.9543 31.0457 0 20 0C8.95431 0 0 8.9543 0 20C0 31.0457 8.95431 40 20 40Z" fill="#FBCE2F"/>
<path d="M17.2717 30.4091C16.9263 30.4091 16.5857 30.3287 16.2768 30.1742C15.9679 30.0197 15.6992 29.7954 15.4921 29.519L10.0358 22.2439C9.8601 22.0102 9.73221 21.7442 9.65942 21.461C9.58663 21.1778 9.57035 20.8831 9.61154 20.5937C9.65273 20.3042 9.75058 20.0257 9.89947 19.7741C10.0484 19.5225 10.2454 19.3027 10.4793 19.1273C10.7132 18.9519 10.9794 18.8243 11.2626 18.7519C11.5458 18.6794 11.8406 18.6635 12.13 18.705C12.4194 18.7465 12.6977 18.8447 12.9492 18.9938C13.2006 19.143 13.4202 19.3403 13.5953 19.5744L17.165 24.3336L26.3334 10.5813C26.6609 10.091 27.1697 9.75068 27.748 9.6353C28.3263 9.51991 28.9268 9.63885 29.4174 9.96596C29.9081 10.2931 30.2488 10.8016 30.3647 11.3798C30.4806 11.958 30.3622 12.5585 30.0356 13.0495L19.1229 29.4184C18.9255 29.7145 18.66 29.9589 18.3487 30.1311C18.0373 30.3034 17.6892 30.3985 17.3336 30.4085C17.3129 30.4088 17.2923 30.4091 17.2717 30.4091Z" fill="#2F2F2F"/>
</svg>
