<svg width="22" height="22" viewBox="0 0 22 22" fill="none" xmlns="http://www.w3.org/2000/svg">
<g clip-path="url(#clip0_167_213)">
<path d="M20.698 5.0844L17.1108 1.47884C16.8737 1.24299 16.5529 1.1106 16.2186 1.1106C15.8842 1.1106 15.5634 1.24299 15.3263 1.47884L2.60911 14.1777L1.448 19.1888C1.40795 19.372 1.40932 19.5618 1.45202 19.7444C1.49472 19.927 1.57767 20.0978 1.69481 20.2442C1.81194 20.3906 1.96031 20.509 2.12907 20.5907C2.29783 20.6725 2.48272 20.7155 2.67022 20.7166C2.75759 20.7254 2.84563 20.7254 2.933 20.7166L7.99911 19.5555L20.698 6.86884C20.9339 6.6318 21.0662 6.31101 21.0662 5.97662C21.0662 5.64223 20.9339 5.32145 20.698 5.0844ZM7.388 18.4555L2.63967 19.4516L3.72134 14.795L13.2363 5.31662L16.903 8.98329L7.388 18.4555ZM17.7219 8.09718L14.0552 4.43051L16.1819 2.31607L19.7874 5.98273L17.7219 8.09718Z" fill="white"/>
</g>
<defs>
<clipPath id="clip0_167_213">
<rect width="22" height="22" fill="white"/>
</clipPath>
</defs>
</svg>
